# xmcd
#
# Track frame offsets: 
#        150
#        10605
#        24427
#        40170
#        52807
#        69562
#        80752
#        94515
#        110955
#        123595
#
# Disc length: 1842 seconds
#
# Revision: 2
# Processed by: cddbd v1.5.2PL0 Copyright (c) Steve Scherf et al.
# Submitted via: ExactAudioCopy v1.0b2
#
DISCID=7a07300a
DTITLE=Clint Black - Killin' Time
DYEAR=1989
DGENRE=Country
TTITLE0=Straight From The Factory
TTITLE1=A Better Man
TTITLE2=Nobody's Home
TTITLE3=Walkin' Away
TTITLE4=You're Gonna Leave Me Again
TTITLE5=I'll Be Gone
TTITLE6=Nothing's News
TTITLE7=Winding Down
TTITLE8=Killin' Time
TTITLE9=Live And Learn
EXTD=
EXTT0=
EXTT1=
EXTT2=
EXTT3=
EXTT4=
EXTT5=
EXTT6=
EXTT7=
EXTT8=
EXTT9=
PLAYORDER=
